<?xml version="1.0" standalone="no"?>
<!DOCTYPE svg PUBLIC "-//W3C//DTD SVG 20010904//EN"
 "http://www.w3.org/TR/2001/REC-SVG-20010904/DTD/svg10.dtd">
<svg version="1.0" xmlns="http://www.w3.org/2000/svg"
 width="1024.000000pt" height="1024.000000pt" viewBox="0 0 1024.000000 1024.000000"
 preserveAspectRatio="xMidYMid meet">
<metadata>
Created by potrace 1.16, written by Peter Selinger 2001-2019
</metadata>
<g transform="translate(0.000000,1024.000000) scale(0.100000,-0.100000)"
fill="#000000" stroke="none">
<path d="M4580 9338 c-27 -35 -65 -79 -83 -98 -18 -19 -49 -60 -69 -90 -19
-30 -76 -98 -127 -150 -83 -87 -91 -98 -85 -125 4 -16 10 -34 14 -40 4 -5 13
-28 19 -50 7 -22 15 -47 18 -55 4 -8 7 -17 7 -20 1 -3 4 -9 8 -15 10 -17 109
-355 129 -445 24 -105 23 -101 48 -180 11 -36 27 -94 36 -130 17 -69 19 -77
28 -100 3 -8 13 -42 22 -75 8 -33 18 -69 21 -80 2 -11 11 -51 19 -90 8 -38 21
-97 29 -130 36 -139 10 -197 -130 -292 -101 -68 -180 -105 -272 -128 -35 -9
-71 -20 -80 -26 -29 -16 -223 -80 -322 -105 -52 -14 -115 -31 -140 -38 -25 -8
-63 -17 -84 -21 -22 -4 -90 -23 -150 -42 -106 -34 -113 -39 -176 -102 -86 -86
-141 -160 -226 -302 -38 -64 -82 -138 -99 -165 -92 -151 -95 -197 -22 -354 67
-145 69 -151 74 -275 4 -89 1 -143 -11 -210 -10 -49 -19 -106 -22 -125 -2 -19
-11 -63 -19 -96 -9 -34 -17 -79 -19 -100 -2 -22 -9 -68 -15 -104 -6 -36 -13
-81 -15 -100 -3 -19 -7 -46 -10 -58 -3 -13 -10 -69 -16 -125 -6 -56 -16 -119
-21 -139 -5 -21 -12 -61 -15 -90 -9 -91 -84 -426 -107 -475 -6 -13 -8 -25 -6
-27 7 -6 285 32 388 53 124 26 203 38 366 55 22 2 51 7 65 10 21 5 118 15 395
41 28 2 172 7 320 11 295 6 630 -7 765 -31 47 -8 105 -17 130 -20 25 -2 56 -7
70 -9 14 -3 63 -10 110 -16 63 -9 101 -21 145 -45 74 -41 102 -70 164 -171 27
-43 58 -90 69 -104 63 -81 502 -129 628 -69 60 29 98 144 69 212 -20 48 -20
47 18 47 53 1 113 34 141 79 32 49 33 88 5 169 l-21 62 31 49 c17 26 31 57 31
68 0 50 -35 117 -99 186 -19 20 -31 37 -26 37 21 0 183 -53 230 -75 40 -19
204 -58 212 -51 1 1 9 31 17 66 16 73 62 199 100 277 14 29 26 56 26 60 0 5
18 35 40 68 22 33 40 63 40 68 0 4 12 26 26 49 111 175 225 411 260 533 7 27
20 63 28 80 29 56 76 173 76 186 0 7 9 31 19 53 117 250 181 441 181 536 0 78
-28 141 -93 205 -62 62 -105 87 -183 109 -33 9 -68 21 -79 25 -48 21 -220 73
-335 101 -138 35 -162 42 -235 75 -27 12 -98 43 -156 69 -156 70 -249 168
-249 263 0 32 16 115 36 183 2 8 12 51 22 95 11 44 31 118 46 165 16 47 30 93
31 103 2 9 7 22 10 28 4 6 15 43 25 82 10 40 22 83 28 97 6 14 23 66 37 115
56 191 98 324 135 425 98 272 89 245 97 302 4 33 1 40 -38 75 -24 21 -50 47
-58 57 -9 11 -36 40 -60 65 -24 25 -68 78 -97 118 -30 40 -66 85 -80 100 l-26
28 7 -50 c4 -27 12 -59 18 -70 7 -12 11 -84 11 -185 0 -179 -10 -231 -75 -384
-27 -64 -144 -236 -178 -263 -17 -13 -68 -8 -85 8 -6 5 -16 9 -24 9 -8 0 -45
19 -81 43 -93 60 -253 120 -356 133 -11 1 -20 3 -20 4 0 7 -109 15 -200 15
-160 -1 -293 -32 -442 -105 -23 -11 -46 -20 -51 -20 -5 0 -17 -10 -28 -21 -10
-12 -38 -30 -61 -41 -23 -10 -45 -23 -48 -28 -11 -18 -79 41 -114 99 -59 96
-119 214 -126 249 -4 18 -13 45 -21 60 -8 15 -14 36 -14 48 0 11 -4 24 -9 30
-26 28 -36 289 -13 329 4 6 7 19 8 30 1 11 11 59 22 108 11 48 16 87 11 87 -4
0 -31 -28 -59 -62z m316 -1838 c49 -37 81 -64 219 -182 130 -111 190 -154 245
-173 63 -22 64 -25 20 -56 -57 -41 -191 -64 -238 -40 -9 5 -30 15 -47 22 -40
19 -130 111 -155 159 -30 59 -100 264 -100 294 0 13 18 5 56 -24z m1361 -57
c-9 -82 -36 -197 -54 -228 -30 -54 -125 -154 -157 -165 -107 -39 -316 -31
-406 16 -24 12 -24 13 -5 19 52 17 251 122 293 155 26 20 59 43 74 51 40 21
178 129 212 167 16 17 34 32 39 32 5 0 7 -21 4 -47z m-230 -749 c3 -9 1 -43
-5 -75 -10 -52 -17 -65 -64 -110 -29 -28 -86 -66 -127 -86 -63 -30 -89 -37
-180 -44 -159 -14 -277 -3 -400 37 -106 35 -133 51 -204 117 l-41 38 35 35
c19 19 46 37 59 40 41 9 247 5 296 -6 47 -11 331 -16 374 -7 37 8 117 33 180
55 70 25 69 25 77 6z m-2081 -354 c67 -11 174 -54 174 -70 0 -5 -54 -9 -137
-9 -76 0 -151 -4 -168 -10 -119 -38 -287 -127 -300 -158 -4 -10 -9 -63 -12
-118 -5 -96 -4 -102 18 -128 13 -15 42 -34 64 -42 22 -8 39 -17 38 -22 -2 -4
-12 -33 -23 -63 -23 -65 -27 -185 -6 -233 7 -18 32 -48 55 -67 42 -35 88 -100
71 -100 -31 0 -106 47 -154 97 -110 113 -185 297 -173 426 8 86 20 119 70 201
25 39 48 85 51 102 7 33 81 111 131 137 17 9 57 25 90 36 95 32 125 35 211 21z
m2662 -135 c20 -42 15 -199 -8 -281 -53 -187 -89 -239 -184 -265 -47 -13 -212
1 -276 23 -21 8 -142 31 -160 31 -8 0 -19 3 -25 8 -5 4 -64 21 -130 38 -66 17
-163 42 -215 56 -52 14 -104 27 -115 30 -11 3 -49 11 -85 19 -36 8 -99 24
-140 36 -41 11 -120 30 -175 41 -55 11 -109 23 -120 25 -11 3 -29 7 -40 9 -11
3 -56 14 -99 25 -44 11 -85 20 -93 20 -7 0 -43 23 -78 50 -35 28 -68 50 -73
50 -16 0 -54 48 -47 59 9 16 73 13 120 -5 22 -9 60 -24 85 -33 25 -9 50 -19
55 -23 28 -17 311 -83 425 -98 83 -11 88 -12 350 -74 102 -24 221 -52 265 -61
44 -9 105 -23 135 -31 115 -28 226 -53 241 -53 12 -1 19 15 27 65 13 81 37
127 113 220 46 56 69 76 106 90 27 10 64 26 83 36 45 22 45 22 58 -7z m-2103
-529 c33 -8 94 -31 135 -52 41 -20 92 -43 115 -51 22 -7 56 -24 75 -37 54 -36
99 -62 174 -101 38 -20 100 -56 138 -80 38 -25 71 -45 73 -45 3 0 38 -22 78
-49 133 -89 520 -311 543 -311 6 0 42 -15 80 -34 38 -19 109 -53 159 -76 l90
-42 -64 -29 c-35 -16 -67 -29 -72 -29 -12 0 -81 -32 -99 -45 -23 -18 -216 -82
-302 -100 -62 -14 -114 -16 -255 -12 -164 4 -192 7 -358 46 -270 62 -385 91
-435 107 -49 17 -266 138 -291 163 -8 9 -55 41 -103 71 -126 79 -132 84 -172
156 -33 59 -71 170 -61 180 2 2 29 -14 61 -37 31 -22 94 -54 139 -71 188 -68
435 -207 537 -302 25 -23 59 -54 77 -70 81 -72 332 -117 653 -115 207 1 350
13 350 29 0 4 -24 17 -52 29 -29 12 -76 36 -105 54 -28 18 -95 58 -150 90 -54
32 -123 76 -153 96 -30 21 -77 48 -103 62 -27 13 -60 34 -73 46 -14 13 -62 47
-107 77 -45 30 -100 67 -122 82 -106 73 -129 87 -197 119 -73 34 -97 40 -198
51 -47 5 -153 -5 -240 -21 -14 -3 -47 -9 -75 -14 -70 -14 -215 -14 -215 -1 0
35 84 150 125 172 13 7 45 26 72 43 97 59 214 77 328 51z"/>
<path d="M9124 7768 c-10 -24 -35 -65 -54 -93 -19 -27 -43 -66 -55 -87 -27
-49 -138 -228 -191 -309 -24 -37 -44 -70 -44 -74 0 -4 -32 -53 -70 -108 -39
-55 -80 -118 -92 -141 -11 -22 -37 -66 -58 -96 -20 -30 -71 -108 -113 -172
-42 -64 -81 -119 -87 -123 -5 -3 -10 -10 -10 -15 0 -10 50 -4 90 11 14 5 36
11 50 14 35 7 160 45 195 60 43 18 119 43 199 65 82 22 92 18 144 -67 18 -29
37 -53 41 -53 5 0 21 -19 36 -42 16 -24 45 -68 65 -98 220 -327 214 -528 -23
-796 -22 -24 -49 -46 -60 -50 -12 -4 -42 -28 -67 -54 -50 -51 -235 -149 -323
-171 -44 -11 -170 -8 -223 4 -49 12 -145 69 -174 105 -43 51 -70 140 -63 206
3 28 10 57 16 64 5 6 7 12 4 12 -3 0 12 39 34 88 39 85 58 165 46 196 -5 14
-15 10 -54 -19 -152 -113 -347 -294 -375 -350 -24 -46 -15 -119 27 -226 63
-156 190 -288 308 -320 23 -6 53 -16 66 -23 26 -12 230 -14 296 -3 22 4 55 9
74 13 32 5 217 65 306 98 120 44 252 123 325 194 30 30 65 61 77 69 11 8 38
44 58 81 20 37 43 78 50 92 8 14 22 43 31 65 9 22 20 49 24 60 27 66 29 235 3
303 -9 26 -34 78 -55 115 -20 37 -48 96 -62 130 -25 62 -174 360 -203 406 -15
23 -14 24 3 16 11 -4 57 -20 103 -36 46 -16 89 -32 95 -37 6 -4 38 -18 71 -31
33 -12 69 -27 80 -32 34 -14 130 -49 137 -49 4 0 0 12 -8 28 -8 15 -42 90 -75
167 -33 77 -90 201 -126 275 -36 74 -71 151 -78 171 -12 32 -68 155 -145 314
-16 33 -52 113 -81 178 -28 64 -55 117 -59 117 -4 0 -16 -19 -26 -42z"/>
<path d="M1372 7768 c-6 -13 -27 -61 -47 -108 -42 -98 -81 -176 -129 -264 -19
-33 -46 -90 -59 -126 -14 -36 -53 -121 -87 -189 -68 -137 -140 -289 -140 -296
0 -2 -11 -28 -24 -57 -31 -67 -76 -179 -76 -190 0 -4 19 1 43 12 23 10 85 38
137 61 52 22 113 49 135 59 36 17 146 60 153 60 13 0 -10 -49 -226 -490 l-106
-215 0 -125 c-1 -87 3 -132 12 -148 8 -13 16 -35 18 -49 6 -34 57 -134 87
-169 13 -16 31 -43 40 -59 15 -31 71 -85 166 -162 49 -40 206 -123 233 -123 7
-1 38 -14 68 -30 30 -17 68 -30 83 -30 15 0 43 -6 62 -14 27 -12 80 -24 135
-31 3 0 11 -4 18 -8 7 -5 62 -11 122 -14 144 -8 245 8 335 53 77 39 114 69
154 128 56 82 71 114 102 210 36 116 34 157 -12 225 -37 56 -212 219 -293 273
-33 23 -65 47 -71 54 -14 17 -69 50 -64 39 11 -25 32 -72 40 -90 13 -30 57
-163 74 -223 18 -63 20 -175 4 -223 -18 -53 -118 -136 -196 -163 -87 -29 -265
-15 -349 29 -16 8 -35 15 -43 15 -22 0 -202 124 -258 178 -28 28 -57 54 -65
58 -17 11 -96 130 -134 204 -27 51 -29 63 -29 170 l0 115 67 135 c73 146 121
217 241 357 72 85 79 91 105 84 15 -5 88 -29 162 -54 74 -24 180 -57 235 -72
55 -15 119 -36 143 -47 24 -11 45 -18 48 -15 3 3 -11 29 -30 57 -20 29 -36 57
-36 64 0 6 -16 29 -34 50 -19 21 -47 62 -62 90 -15 28 -44 73 -65 100 -20 27
-49 73 -64 102 -15 29 -36 60 -47 70 -11 10 -36 48 -56 84 -20 36 -49 83 -65
105 -15 22 -37 58 -47 80 -11 22 -42 71 -70 110 -27 38 -50 76 -50 84 0 7 -29
56 -65 108 -36 52 -68 107 -71 123 -4 16 -14 36 -23 45 -16 14 -19 13 -29 -7z"/>
<path d="M7466 5210 c-56 -22 -90 -51 -150 -130 -79 -104 -100 -176 -94 -333
3 -96 5 -106 38 -162 43 -72 94 -102 189 -110 36 -4 90 -13 120 -21 31 -8 66
-17 78 -20 44 -9 199 -66 230 -85 89 -55 120 -131 83 -209 -25 -53 -140 -157
-200 -180 -19 -7 -69 -30 -111 -51 -78 -38 -319 -118 -439 -144 -8 -2 -15 -4
-15 -5 0 -2 -8 -3 -85 -19 -30 -5 -64 -13 -75 -16 -33 -8 -104 -23 -225 -46
-63 -12 -142 -34 -176 -50 -33 -15 -107 -43 -165 -63 -186 -63 -175 -55 -408
-315 -35 -39 -82 -97 -105 -129 -22 -32 -63 -84 -90 -115 -27 -31 -59 -72 -70
-91 -27 -44 -110 -162 -159 -227 -36 -46 -144 -217 -193 -304 -57 -102 -68
-306 -30 -590 4 -25 15 -64 26 -90 5 -11 11 -37 15 -57 3 -20 14 -46 23 -58
17 -21 22 -22 73 -12 152 30 256 35 697 29 246 -4 546 -11 667 -16 121 -5 315
-12 430 -16 116 -3 311 -10 435 -16 360 -15 1430 -24 1430 -12 0 10 -108 45
-121 40 -3 -1 -12 3 -20 9 -12 10 -190 69 -236 79 -29 5 -167 57 -178 66 -6 4
-24 10 -40 13 -51 9 -149 36 -170 46 -22 11 -182 69 -190 70 -3 0 -6 0 -7 1
-2 0 -10 2 -18 4 -29 8 -356 121 -366 128 -6 3 -32 11 -59 17 -26 6 -59 20
-73 30 -13 11 -31 20 -38 20 -8 0 -22 4 -32 9 -9 6 -57 22 -107 37 -87 27
-112 37 -275 111 -99 44 -128 60 -194 107 -58 39 -73 67 -62 110 8 34 132 156
256 253 58 46 128 102 155 126 28 24 65 52 83 61 18 9 57 38 86 64 30 26 82
68 117 95 35 26 87 65 114 87 28 22 68 53 90 69 79 59 261 203 312 247 28 25
90 74 137 110 47 35 86 68 86 73 0 5 24 24 53 42 28 19 72 53 97 78 25 24 58
52 75 63 16 10 67 55 113 100 83 83 102 117 102 184 0 133 -159 339 -443 572
-31 26 -75 62 -97 81 -22 19 -62 47 -88 64 -26 16 -66 46 -88 66 -54 46 -165
130 -263 196 -42 28 -103 70 -136 92 -33 23 -78 46 -100 52 -62 17 -163 13
-219 -9z"/>
<path d="M2668 5101 c-61 -36 -171 -91 -181 -91 -8 0 -181 -102 -206 -122 -15
-10 -57 -37 -96 -60 -38 -22 -80 -50 -91 -63 -12 -13 -37 -31 -55 -41 -41 -21
-257 -236 -296 -295 -15 -23 -35 -52 -43 -65 -51 -77 -85 -146 -94 -194 -1 -3
-4 -9 -8 -15 -12 -20 14 -132 49 -205 81 -169 228 -362 438 -575 64 -65 248
-229 277 -248 16 -10 47 -35 70 -56 24 -22 64 -55 90 -73 26 -18 79 -55 117
-83 169 -120 280 -186 458 -274 121 -60 180 -83 230 -91 37 -6 79 -15 93 -20
14 -5 37 -11 53 -14 24 -6 26 -10 21 -34 -6 -25 -24 -66 -46 -102 -5 -8 -18
-35 -30 -60 -19 -41 -56 -93 -98 -142 -9 -9 -34 -25 -55 -34 -22 -9 -57 -32
-78 -51 -21 -18 -50 -39 -65 -45 -15 -7 -47 -26 -72 -44 -25 -17 -70 -44 -100
-59 -30 -15 -62 -34 -71 -41 -24 -22 -125 -83 -204 -125 -122 -64 -220 -121
-230 -133 -5 -7 -62 -38 -125 -68 -63 -31 -131 -67 -150 -80 -20 -14 -57 -35
-83 -48 -26 -13 -46 -24 -44 -25 1 -1 92 1 202 6 110 4 376 13 590 19 215 6
543 20 730 30 187 10 410 22 495 25 85 4 169 8 185 11 17 2 113 8 215 14 219
11 357 21 385 25 11 2 36 6 55 9 19 3 58 8 85 11 78 9 170 26 182 33 8 6 51
117 59 155 1 4 2 8 4 10 1 1 3 9 5 17 2 8 11 40 19 70 8 30 17 66 20 80 3 14
7 36 10 50 12 54 16 77 21 130 3 30 8 66 9 80 26 189 28 238 23 388 -7 162
-28 346 -67 572 -11 63 -22 129 -25 145 -3 17 -9 50 -14 75 -12 58 -27 141
-46 260 -26 166 -40 212 -69 238 -28 26 -258 64 -561 93 -200 19 -967 0 -992
-25 -2 -2 18 -45 44 -97 73 -142 84 -175 94 -274 4 -49 11 -115 15 -145 14
-126 16 -528 4 -668 l-13 -144 -26 5 c-26 6 -27 4 -27 -36 1 -23 -3 -44 -9
-46 -24 -9 -46 73 -60 227 -19 214 -30 257 -78 304 -22 21 -45 38 -52 38 -7 0
-26 7 -41 15 -16 8 -36 15 -44 15 -9 0 -20 4 -25 9 -6 5 -39 18 -75 29 -146
45 -381 159 -453 220 -9 8 -26 20 -36 26 -77 44 -329 282 -356 336 -10 19 -29
50 -43 68 -32 42 -72 164 -72 218 0 119 59 260 144 348 67 68 117 111 152 130
38 20 108 85 125 116 16 30 27 476 12 491 -5 5 -35 -7 -75 -30z"/>
<path d="M5330 3697 c-21 -10 -26 -21 -28 -61 -2 -26 1 -67 7 -90 18 -75 70
-271 71 -271 1 0 3 -9 5 -20 3 -11 9 -42 15 -70 16 -75 18 -83 30 -175 6 -47
14 -131 17 -187 3 -57 8 -103 12 -103 3 0 22 25 41 56 19 30 52 76 73 102 20
26 41 52 45 57 74 98 66 89 251 287 84 91 171 175 192 187 21 12 39 23 39 24
0 1 -28 1 -63 -1 -59 -3 -227 28 -252 47 -5 4 -36 18 -68 31 -32 12 -106 56
-165 98 -95 67 -157 101 -187 101 -5 1 -21 -5 -35 -12z"/>
<path d="M10080 80 l0 -80 80 0 80 0 0 80 0 80 -80 0 -80 0 0 -80z"/>
</g>
</svg>
