<?xml version="1.0" encoding="UTF-8"?>
<svg version="1.1" viewBox="0 0 574.17 258.67" xml:space="preserve" xmlns="http://www.w3.org/2000/svg">
  <g fill="#cd2682" aria-label="A'sD">
    <path d="m131.67 206.33h-66.833l-13 49.667h-51.833l75.833-242.67h44.833l76.333 242.67h-52.333zm-56.167-40.833h45.333l-22.667-86.5z" style="font-variant-caps:small-caps"/>
    <path d="m226 24.667-4.8333 67.5h-30.667v-92.167h35.5z" style="font-variant-caps:small-caps"/>
    <path d="m338.5 203.83q0-9.5-5.6667-15.333-5.5-5.8333-20.833-10.667-34.167-9.3333-47.333-22.833-13.167-13.667-13.167-38.5 0-25 17.667-41.167 17.667-16.167 45.833-16.167 31.5 0 50.167 16.5 18.833 16.333 18.833 44.167h-47q0-11-6-17.833-5.8333-6.8333-15.833-6.8333-8.8333 0-13.833 5.5-5 5.5-5 14 0 8 5.5 13.167 5.6667 5.1667 20.167 10.333 32.667 8.3333 47 23.167t14.333 41-17.333 41.333q-17.333 15-48 15-14.667 0-28.5-4.3333-13.667-4.3333-23.5-13-20-17.333-20-47.333h47.333q0 16.167 6 22.667 6 6.3333 21.167 6.3333 18 0 18-19.167z" style="font-variant-caps:small-caps"/>
    <path d="m416.5 256v-242.67h64.167q42.5 0 67.667 27 25.333 27 25.833 74v39.333q0 47.833-25.333 75.167-25.167 27.167-69.5 27.167zm49-201.83v161.17h14.667q24.5 0 34.5-12.833 10-13 10.5-44.667v-42.167q0-34-9.5-47.333-9.5-13.5-32.333-14.167z" style="font-variant-caps:small-caps"/>
  </g>
</svg>
